<svg xmlns="http://www.w3.org/2000/svg" version="1.1" xmlns:xlink="http://www.w3.org/1999/xlink" width="1500" height="1500" viewBox="0 0 1500 1500"><rect width="1500" height="1500" x="0" y="0" id="background" stroke="transparent" fill="#000000"></rect><svg xml:space="preserve" width="1000" height="1000" data-version="2" data-id="lg_TatjkFi3gEk4MRqkU9" viewBox="0 0 301 561" x="250" y="250"><rect width="100%" height="100%" fill="transparent"></rect><path fill="#d4d4d4" d="M19.46 554.01v-24.38h-7.13v-7.27H37.3v7.27h-7.13v24.38Z"></path><rect width="24.97" height="31.65" x="-12.48" y="-15.82" fill="none" rx="0" ry="0" transform="translate(25.32 538.68)"></rect><path fill="#d4d4d4" d="M40.2 554.01v-31.65h10.35v11.91h9.8v-11.91h10.4v31.65h-10.4v-12.47h-9.8v12.47Z"></path><rect width="30.55" height="31.65" x="-15.28" y="-15.82" fill="none" rx="0" ry="0" transform="translate(55.98 538.68)"></rect><path fill="#d4d4d4" d="M99.77 554.74q-3.31 0-5.47-.99-2.16-.99-3.45-2.73-1.29-1.75-1.93-4.1-.65-2.34-.88-5.06h-2.16v12.15H75.81v-31.65h13.01q7.55 0 10.88 2.64 3.34 2.65 3.34 7.16 0 2.71-1.47 4.85-1.48 2.14-4.74 3.56.18 1.02.32 1.66.14.64.41 1.43.6 1.65 1.5 2.3.9.64 2.46.64 1.01 0 2.02-.28l.56 7.55q-.92.37-1.96.62-1.03.25-2.37.25m-13.89-19.18h1.75q3.4 0 4.8-.76 1.41-.76 1.41-2.6 0-1.56-1.15-2.27-1.15-.72-3.64-.72h-3.17Z"></path><rect width="28.29" height="32.38" x="-14.14" y="-16.19" fill="none" rx="0" ry="0" transform="translate(90.45 539.05)"></rect><path fill="#d4d4d4" d="M106.9 554.01v-31.65h22.22v6.99h-11.04v5.61h10.07v5.8h-10.07v6.02h11.04v7.23Z"></path><rect width="22.22" height="31.65" x="-11.11" y="-15.82" fill="none" rx="0" ry="0" transform="translate(118.51 538.68)"></rect><path fill="#d4d4d4" d="m130.91 554.01 8.74-31.65h14.91l9.15 31.65h-11.27l-1.19-6.08h-8.19l-1.34 6.08Zm13.11-11.73h6.12l-2.99-13.85Z"></path><rect width="32.8" height="31.65" x="-16.4" y="-15.82" fill="none" rx="0" ry="0" transform="translate(147.81 538.68)"></rect><path fill="#d4d4d4" d="M166.2 554.01v-31.65h10.99q6.9 0 11.25 1.98 4.34 1.97 6.39 5.47t2.05 8.14q0 7.59-4.99 11.82-4.99 4.24-15.16 4.24Zm10.16-8.05h2.95q3.68 0 5.47-2.23 1.79-2.24 1.79-5.87 0-3.36-1.72-5.4-1.73-2.05-5.54-2.05h-2.95Z"></path><rect width="30.68" height="31.65" x="-15.34" y="-15.82" fill="none" rx="0" ry="0" transform="translate(182.04 538.68)"></rect><path fill="#d4d4d4" d="M200.6 554.01v-31.65h9.94v24.38h11.22l-.46 7.27Z"></path><rect width="21.16" height="31.65" x="-10.58" y="-15.82" fill="none" rx="0" ry="0" transform="translate(211.68 538.68)"></rect><path fill="#d4d4d4" d="m222.45 554.01 8.74-31.65h14.91l9.15 31.65h-11.27l-1.19-6.08h-8.19l-1.34 6.08Zm13.11-11.73h6.12l-2.99-13.85Z"></path><rect width="32.8" height="31.65" x="-16.4" y="-15.82" fill="none" rx="0" ry="0" transform="translate(239.35 538.68)"></rect><path fill="#d4d4d4" d="M269.7 554.01h-11.96v-31.65h12.92q7.59 0 11.13 2.09 3.55 2.09 3.55 5.77 0 4.79-5.02 6.58 6.44 1.24 6.44 7.59 0 4.88-4.44 7.25t-12.62 2.37m-1.71-19.14h3.64q1.84 0 2.99-.83 1.15-.83 1.15-2.21 0-3.17-4.33-3.17h-3.45Zm3.91 12.65q2.3 0 3.55-.92 1.24-.92 1.24-2.58 0-1.79-1.24-2.78-1.25-.99-3.55-.99h-3.95v7.27Z"></path><rect width="29.02" height="31.65" x="-14.51" y="-15.82" fill="none" rx="0" ry="0" transform="translate(272.75 538.68)"></rect><path fill="#d4d4d4" d="M149.982 485.086q-58.918.018-117.836-.037c-5.084 0-10.167-.352-15.233-.758-6.526-.5-9.133-3.642-10.833-9.946-4.067-15.067-1.35-30.3-1.59-45.423-.462-29.875-.462-59.75-.425-89.625.037-24.458.129-48.916.665-73.356.573-26.437-1.202-52.8-1.682-79.199-.333-17.987.351-35.994.314-54-.092-24.958-.573-49.897-.573-74.836q0-21.925 1.035-43.814c.315-7.062 1.978-8.134 9.373-8.19q27.01-.203 54.038-.258c40.357-.056 80.695-.019 121.053-.056q41.096-.037 82.193-.166c5.527 0 11.073-.166 16.601-.148 4.455.018 7.32 2.644 8.43 6.618a48.066 48.066 0 0 1 2.07 12.682c.038 34.627-.332 69.271-.258 103.897.055 31.558.61 63.096.72 94.654.056 17.525-.498 35.07-.461 52.595.055 23.238.554 46.477.61 69.696.055 26.012-.24 52.041-.278 78.052 0 12.923.315 25.864.24 38.786-.018 3.66-.813 7.34-1.515 10.944-1.202 6.027-4.123 8.93-10.353 9.225q-18.006.795-36.013.85c-33.424.112-66.849.038-100.273.038v1.738Zm-19.965-462.25v-.59c-7.71 0-15.4.055-23.11 0q-41.336-.334-82.655-.814c-4.566-.056-5.287 2.403-5.25 6.174q.277 38.786.462 77.609.315 65.813.684 131.627.315 46.421.703 92.842l.98 131.609c.074 8.855 1.793 10.445 10.667 10.186 17.71-.499 35.402-1.072 53.113-1.46 40.653-.87 81.287-1.627 121.94-2.44 3.993-.075 7.986-.389 11.998-.37q26.547.13 53.113.388c4.437.037 6.378-2.09 6.452-6.47.111-7.395.592-14.772.666-22.166q.296-26.012.296-52.004c-.019-34.183-.148-68.365-.222-102.566-.037-16.602-.148-33.221 0-49.823.11-11.85.795-23.7.869-35.532.055-7.838-.777-15.677-.703-23.515.185-17.507.943-34.996 1.035-52.503.185-31.095.056-62.19.093-93.286 0-6.452-1.036-7.542-7.506-7.45-14.623.203-29.246.518-43.87.555-33.258.092-66.516.018-99.792.018Z"></path><path fill="#d4d4d4" d="m155.2 283.626 113.547-2.163c5.065-.093 6.507.961 6.563 5.99q.407 32.537.554 65.037c.093 21.39 0 42.797 0 64.187v40.172c0 4.326-1.996 6.452-6.488 6.489q-22.148.203-44.314.628c-20.594.37-41.189.999-61.783 1.184-20.484.184-40.968-.24-61.433 0-14.77.166-29.523.942-44.276 1.46-8.3.277-16.601.647-24.92.832-3.938.092-5.99-2.144-5.99-6.045 0-8.93.11-17.859.13-26.788.055-20.15.166-40.302.073-60.452-.074-15.53-.592-31.059-.647-46.588-.037-12.46.462-24.92.462-37.38 0-4.141 1.442-5.824 5.639-5.842 28.008-.167 56.015-.5 84.023-.703 11.536-.092 23.09 0 38.841 0Zm-36.383 129.483 1.184-.721c1.275 1.109 2.939 1.978 3.752 3.364a110.922 110.922 0 0 1 5.399 10.667c4.048 8.967 7.912 18.025 12.016 26.954 1.294 2.829 3.531 5.121 6.97 3.531 3.42-1.59 3.198-4.88 1.812-7.58-1.442-2.79-3.864-5.046-5.62-7.708-2.145-3.217-4.77-6.397-5.86-9.983a144.199 144.199 0 0 1-4.05-19.393c-.61-3.882-2.015-5.62-6.211-5.583-2.274 0-6.082-1.294-6.49-2.755-.646-2.33.445-5.583 1.757-7.912 1.867-3.29 4.622-6.046 6.951-9.077 2.126-2.773 4.88-2.866 7.395-.24 1.035 1.072 2.145 2.07 2.81 2.698l3.402-5.712 5.657 4.899c.092-1.997.24-3.346.222-4.696q-.463-28.396-1.054-56.773c-.222-10.741.296-21.556-4.252-31.798-1.535-3.42-3.66-5.25-7.266-5.269q-7.838-.092-15.64.24c-2.976.148-3.716 2.053-2.68 5.473l5.694-3.975c.832 4.178 3.272 4.88 6.766 4.012 1.257-.315 2.81.055 4.086.48a8.874 8.874 0 0 1 6.322 8.283c.204 3.641-2.385 4.954-5.694 6.1a9.798 9.798 0 0 0-5.38 5.325c-2.089 6.267-2.939 12.94-5.083 19.17-1.812 5.288-4.05 10.705-7.321 15.16a33.277 33.277 0 0 0-6.859 18.709c-.074 1.534.425 3.106.813 5.786 1.387-1.793 2.071-2.533 2.607-3.383 3.124-4.899 6.082-9.89 9.336-14.716 4.844-7.21 9.244-14.53 9.965-23.478.221-2.607.61-5.213 1.312-7.728.314-1.127 1.627-1.978 2.496-2.958.72 1.036 1.812 1.997 2.107 3.143.592 2.385.629 4.88 1.091 7.303 1.793 9.446.037 18.024-6.027 25.623-4.122 5.176-7.986 10.556-12.257 15.603-6.119 7.21-9.798 15.492-9.853 24.846-.111 18.006.351 36.013.74 54.02.036 1.367 1.349 3.789 2.273 3.881 4.141.426 8.356.185 13.792.185-9.133-13.976-9.799-29.08-11.093-44.036Zm71.97-28.544 1.276-.351c0-6.86-.222-13.718.074-20.577.24-5.25-1.997-8.873-6.156-11.572a12.94 12.94 0 0 1-5.898-9.41 199.66 199.66 0 0 0-3.882-20.391c-1.257-4.807-2.828-10.02-9.022-11.056q-5.527-.924-5.305-6.34c.185-3.864 2.384-6.286 6.137-7.044 1.627-.333 3.402.055 5.047-.24 1.054-.185 2.792-.943 2.847-1.59.758-7.303 3.365-2.515 5.62-1.017.888.591 2.09.72 3.162 1.072.295-1.128 1.22-2.7.776-3.328-1.017-1.442-2.625-3.346-4.104-3.438-5.657-.37-11.37-.278-17.045.074-1.479.092-3.79 1.534-4.16 2.791-1.996 7.062-4.899 14.254-4.954 21.427-.185 23.534.72 47.068 1.257 70.602.037 1.294.61 2.55.924 3.845 1.609-1.128 1.904-2.385 2.68-3.198 1.036-1.091 2.423-1.83 3.661-2.718.573 1.424 1.331 2.81 1.646 4.307.277 1.35.055 2.81.055 4.419l6.6-6.23 1.46 5.73c3.864 1.091 7.765 2.552 10.538 5.196 3.069 2.939 1.756 7.431-2.422 8.208-5.897 1.09-7.764 4.77-8.522 9.89-.37 2.589-.906 5.158-1.368 7.728-1.516 8.56-3.31 16.897-10.667 22.85a9.244 9.244 0 0 0-2.847 5.99c-.148 1.774 1.35 3.679 2.126 5.527 1.497-1.09 3.605-1.867 4.381-3.346 2.126-4.067 3.568-8.504 5.51-12.682q5.582-12.09 11.517-23.996c.665-1.331 2.348-2.182 3.568-3.235l1.238.813c-.13 1.442-.11 2.921-.443 4.326-2.33 10.353-4.936 20.65-7.062 31.04-1.85 9.021-1.646 8.966 7.635 8.19 2.92-.24 4.16-1.48 4.14-4.308-.092-14.457.093-28.932-.295-43.389-.24-9.077-2.625-17.267-9.54-24.218-4.177-4.215-7.024-10.112-9.39-15.695-6.582-15.566-6.748-32.427-8.837-48.88-.093-.74.573-1.571 1.183-3.143 1.553 1.849 3.106 3.014 3.753 4.566 2.255 5.38 5.047 10.723 6.119 16.361 2.754 14.68 8.023 28.396 14.087 41.91.72 1.627 1.886 3.05 2.847 4.567Zm39.988 3.18c.13-1.942.388-3.531.314-5.121-.13-3.217-.666-6.452-.647-9.67.055-16.157.351-32.333.333-48.49-.019-9.521-.444-19.024-.795-28.544-.148-3.994-2.57-6.323-6.452-6.545q-8.32-.462-16.62-.11c-1.183.055-2.976 1.663-3.254 2.865-.314 1.33.758 2.995 1.239 4.53q2.089-.907 4.122-1.868c1.387-.647 2.903-2.145 4.068-1.886 2.976.647 5.75 2.182 8.652 3.162 3.863 1.294 6.618 4.917 6.23 8.688-.426 4.29-2.866 5.898-7.155 6.138-1.7.093-4.307 2.126-4.714 3.734a144.199 144.199 0 0 0-3.513 18.987c-.887 7.56-2.662 14.456-9.021 19.466-4.936 3.883-7.229 14.845-4.215 22.37 1.516-2.792 2.717-4.918 3.845-7.062 4.252-8.172 9.17-16.103 12.479-24.644 2.57-6.618 2.976-14.05 4.659-21.038.388-1.571 2.126-2.828 3.235-4.215.573 1.59 1.664 3.18 1.664 4.77-.037 6.304-.555 12.608-.647 18.93-.185 11.61-4.086 21.704-12.22 30.023-9.373 9.577-14.476 20.613-14.014 34.386.5 14.587-.184 29.228-.018 43.833.018 1.941 1.516 5.084 2.958 5.51 2.94.85 6.396.59 9.41-.13.61-.148.758-4.456.277-6.656-2.292-10.519-4.917-20.982-7.265-31.483-.389-1.738-.056-3.66-.056-6.766 1.997 1.793 3.29 2.495 3.883 3.586 3.512 6.434 7.154 12.812 10.204 19.467 2.681 5.842 4.493 12.109 7.1 17.988.61 1.386 2.92 2.052 4.436 3.032.536-1.793 1.812-3.772 1.442-5.343a13.865 13.865 0 0 0-3.568-5.75 24.033 24.033 0 0 1-6.748-13.347c-.647-4.566-1.46-9.114-1.978-13.699-.573-5.047-2.57-8.485-7.894-10.038-6.23-1.812-7.265-6.47-3.29-11.777a14.79 14.79 0 0 0 2.625-4.732c1.275-4.751 3.753-5.694 7.838-2.68l3.994 2.92 2.514-7.117 6.6 4.344ZM59.16 381.108c1.627-1.904 2.995-3.236 4.012-4.807.887-1.386 2.236-3.254 1.904-4.51-2.68-10.243-5.158-20.614-8.8-30.523-3.642-9.909-9.003-19.226-12.682-29.135-1.941-5.214-1.701-11.203-2.866-16.75-.332-1.552-2.163-2.81-3.29-4.196-1.331 1.405-2.773 2.736-3.957 4.252-.388.5-.184 1.497-.184 2.255-.093 9.706-.296 19.393-.222 29.099.222 28.766.61 57.55.85 86.316q.13 19.855.056 39.691c0 3.106.942 4.788 4.418 5.066 8.134.647 8.356.499 5.546-7.377-.314-.868-.72-1.7-.998-2.588-2.718-8.374-5.158-16.823-4.03-25.77.147-1.22 1.46-2.312 2.218-3.458.684 1.073 1.83 2.09 1.997 3.254 1.94 12.922 9.502 23.238 15.788 34.127.647 1.11 2.828 1.978 4.14 1.793.888-.13 2.016-2.255 2.127-3.55.406-5.434-.703-10.352-5.417-13.957-6.304-4.825-8.837-11.591-9.41-19.282-.24-3.217-.906-6.415-.961-9.65-.093-5.232-2.219-8.097-7.617-9.225-5.879-1.22-7.025-5.398-3.438-10.408 1.33-1.849 3.494-3.513 3.863-5.528.74-3.938 2.496-3.623 5.121-2.2q1.72.924 3.402 1.886c0-2.07-.703-3.513-1.553-4.862-8.282-13.126-13.218-27.12-10.76-42.89.37-2.422 2.034-4.659 3.106-6.97.925 2.274 2.718 4.585 2.644 6.822-.573 16.583 10.556 28.84 14.974 43.075Zm198.217 9.17c1.96.85 4.142 1.09 4.9 2.255 1.645 2.514 3.327 5.453 3.53 8.337.222 3.05-1.94 4.936-5.675 5.288-1.812.166-3.993 2.606-4.936 4.547a29.58 29.58 0 0 0-2.366 8.893c-1.405 10.26-3.605 20.077-12.46 26.861-.352.26-.555.74-.74 1.165-1.313 3.013-1.867 6.1 1.35 8.19 2.514 1.627 6.026-.536 7.265-4.326 2.015-6.138 3.679-12.405 5.879-18.469 2.348-6.489 5.084-12.867 7.857-19.19.425-.96 1.996-1.423 3.032-2.107.295 1.072.942 2.2.813 3.235-1.516 12.331-3.217 24.644-4.677 36.993-.148 1.183.684 3.254 1.553 3.586 1.164.444 3.309.056 4.14-.832.87-.924.87-2.828.888-4.326.185-24.476.407-48.972.462-73.448q.074-39.267-.129-78.533c0-2.385-.758-4.751-1.165-7.136l-1.497.185c-.314 3.013-1.054 6.063-.832 9.021.924 12.978-4.51 23.202-13.052 32.353-7.857 8.411-13.625 17.803-13.107 30.041.203 4.733-.647 9.502-.906 14.272-.074 1.331.314 2.7.629 5.306 1.368-1.849 1.996-2.496 2.384-3.254 6.101-12.072 12.11-24.2 18.34-36.216.905-1.756 2.772-3.013 4.4-4.733 3.401 6.267.498 24.625-3.458 30.91-3.05 4.807-6.174 9.577-8.984 14.531-1.22 2.163-1.738 4.733-2.57 7.118l1.165.444c1.719-2.071 3.346-4.252 5.231-6.157.592-.591 2.182-.887 2.829-.517.628.37.887 1.775.906 2.736 0 .85-.536 1.7-1.017 2.995ZM93.176 292.425l-.795-1.979c-4.973 0-9.964-.221-14.9.167-1.091.092-2.589 2.237-2.884 3.66-1.091 5.25-2.44 10.593-2.496 15.918-.26 23.09-.13 46.18-.093 69.27 0 1.11.333 2.2.536 3.513.703-.444.999-.555 1.184-.758l3.605-4.012c.37 1.701.665 3.439 1.127 5.121.26.924.758 1.793 1.165 2.68.85-.517 1.738-.979 2.57-1.552q1.904-1.35 3.771-2.736c.573 1.146 1.035 2.385 1.775 3.42.61.85 1.59 2.107 2.348 2.052 2.07-.111 4.122-.74 6.082-1.46a7.395 7.395 0 0 0-.85-3.587A214.45 214.45 0 0 0 87 371.679c-4.843-5.805-8.448-12.349-8.91-19.892-.555-9.206-.278-18.468-.093-27.693.019-1.35 1.46-2.662 2.237-3.993.721 1.164 1.886 2.255 2.09 3.494 3.641 21.63 11.516 41.762 21.333 61.21.555 1.09 1.405 2.034 2.33 3.365.683-1.017 1.183-1.424 1.127-1.738-2.2-12.627 1.72-26.88-9.909-36.993-.462-.388-.74-.98-1.11-1.478-5.25-6.97-6.507-15.252-7.098-23.553-.462-6.322-2.625-10.907-8.689-13.366a14.79 14.79 0 0 1-4.197-2.829c-3.05-2.754-2.92-5.878.684-7.893 2.774-1.553 6.064-2.145 8.948-3.513 2.588-1.22 4.955-2.94 7.432-4.437Zm3.457 120.794 1.886.148c.425 1.368.924 2.699 1.294 4.085 3.013 11.518-1.867 21.445-6.49 31.373-4.214 9.077-4.307 9.021 5.418 8.43q.924-.074 1.83.018c3.55.48 4.75-1.423 4.677-4.585-.333-15.824-.592-31.65-1.183-47.474-.074-1.812-1.775-4.88-3.106-5.103-5.805-.98-8.985.832-9.761 4.733-1.35 6.785-2.533 13.606-3.882 20.391-1.258 6.341-4.363 11.555-10.113 14.734-5.176 2.866-7.025 7.136-5.99 12.7.315 1.646 1.46 3.125 2.237 4.678 1.48-.887 3.642-1.405 4.345-2.717 6.063-11.315 14.494-21.52 16.49-34.812.333-2.273 1.535-4.418 2.33-6.618ZM88.462 307.9c1.35 2.865 3.161 5.6 3.956 8.614 1.553 5.916 3.05 11.943 3.623 18.025.574 6.045 4.419 9.391 8.615 12.386 5.103 3.642 10.168 1.516 12.072-4.53 1.331-4.233 3.162-8.133 3.827-12.774.943-6.673 4.27-13.014 6.378-19.54.351-1.11-.222-2.515-.37-3.79-1.405.333-3.216.222-4.14 1.072-3.143 2.884-3.328 6.618-2.422 10.63.332 1.46.055 3.143-.315 4.622-.536 2.107-1.497 4.104-2.163 6.193-1.164 3.697-.425 8.227-5.583 11.943-.296-3.624-1.017-6.157-.591-8.467 1.072-5.731 2.514-11.407 4.067-17.045 3.938-14.365 1.7-13.884-11.573-13.736-1.424 0-2.829.702-4.603 1.183 4.899 4.307 9.65 3.975 14.734 1.35-1.276 7.21-2.422 7.93-7.82 5.767l-8.208-3.29c.74 3.42 1.164 5.75 1.756 8.042 1.553 6.1 3.217 12.182 4.751 18.283.333 1.313.555 2.792.259 4.067a4.437 4.437 0 0 1-2.052 2.644c-.444.222-2.145-.832-2.367-1.59a70.25 70.25 0 0 1-1.96-8.689c-.35-2.052-.221-4.215-.646-6.248-.629-2.94-1.793-5.787-2.348-8.726-.721-3.827-2.847-6.027-6.859-6.378Zm117.078 17.636-1.627-.093c-.222 3.66-.166 7.377-.776 10.982-.278 1.626-1.85 3.031-2.829 4.547-.813-1.479-2.533-3.142-2.274-4.418 1.516-7.709.037-15.917 3.901-23.257.61-1.146.092-2.884.092-4.862-7.08 4.437-9.373 3.846-12.201-2.31 2.31 0 4.677.24 6.97-.13.795-.13 1.368-1.72 2.033-2.662-.85-.536-1.682-1.442-2.57-1.516q-3.235-.277-6.452.11c-5.01.592-5.638 1.905-4.27 6.73 2.496 8.726 4.955 17.47 7.08 26.289 1.295 5.36-.628 7.302-5.453 6.304.869 4.474 2.255 5.73 6.914 6.34 4.991.648 9.151-1.22 10.852-5.102 2.44-5.62.758-11.277.61-16.915ZM64.928 340.954c.943-1.09 1.312-1.313 1.312-1.516-.443-14.864-.832-29.746-1.534-44.61-.055-1.293-2.052-3.253-3.439-3.549a46.218 46.218 0 0 0-10.02-.758c-3.475.037-4.4 1.72-3.087 5.158 4.751 12.479 9.244 25.05 13.847 37.584.869 2.385 1.793 4.733 2.92 7.69m-1.108 53.558c2.958.998 4.843 1.922 6.803 2.163 1.054.13 2.255-.943 3.383-1.48-.684-.997-1.146-2.532-2.07-2.92-6.157-2.57-11.352 1.442-10.538 8.079.24 1.978.887 3.882 1.294 5.842 1.294 6.156 2.773 12.293 3.697 18.505.24 1.608-1.238 3.494-1.94 5.25q-1.942-1.553-3.957-3.032c-.333-.24-.814-.277-1.59-.517-1.682 2.958-.13 5.047 1.793 6.766 3.106 2.773 6.101 1.997 8.523-1.054 4.104 3.402 7.838 3.291 10.371-1.183 1.96-3.457 2.57-7.727 3.42-11.702.185-.887-1.128-2.108-1.756-3.18-.98.943-2.57 1.756-2.829 2.884-.554 2.366-.11 4.955-.684 7.302-.351 1.46-1.811 2.663-2.791 3.975-.925-1.405-2.644-2.847-2.588-4.215.166-3.956.887-7.912 1.682-11.813.98-4.88 2.237-9.706 3.457-14.92-5.823 4.142-10.575 2.774-13.68-4.787Zm174.332-60.915c1.035-.185 1.46-.148 1.608-.314 9.447-12.128 14.439-25.863 14.383-41.245 0-1.09-2.459-3.032-3.845-3.105-4.788-.26-8.56 3.18-9.52 9.41-1.295 8.3-1.868 16.73-2.57 25.123-.278 3.254-.038 6.563-.038 10.15Zm-76.777 69.752-1.682-.832-2.865 1.183c-3.143 1.35-8.116 2.015-8.967 4.252-1.09 2.865 1.054 7.006 1.942 10.574.98 3.846 2.126 7.654 3.401 12.22zm67.182 29.579c1.405 5.028 8.966 7.302 12.11 3.771.628-.702.665-2.884.055-3.568-4.234-4.714-3.199-9.927-1.867-15.233.591-2.385 1.46-4.696 1.922-7.1.167-.868-.259-2.347-.906-2.717-.702-.406-2.274-.222-2.92.333-2.367 2.089-4.918 4.086-3.883 8.06.721 2.792.887 5.75 1.054 8.652.222 3.993.11 7.95-5.565 7.765Zm-82.655-2.496c1.923 5.897 5.084 8.338 9.78 7.71 3.494-.482 6.267-1.96 6.858-6.656-5.879 3.53-11.074 2.754-16.638-1.054m21.297-26.695-1.59-.278c-.869 3.458-1.793 6.896-2.551 10.372-.074.37 1.035 1.46 1.386 1.368.721-.185 1.664-.832 1.849-1.48a61.007 61.007 0 0 0 1.7-7.708c.112-.703-.517-1.516-.813-2.293Zm27.453-105.838c1.22-2.607 2.588-4.27 2.2-4.955-.795-1.46-2.533-2.403-3.882-3.55-.721.98-2.256 2.22-2.034 2.885.536 1.645 1.886 3.013 3.698 5.62Zm-85.52-9.262c-1.276 2.181-2.515 3.494-2.256 4.03.776 1.534 2.163 2.773 3.327 4.123.87-.962 2.626-2.182 2.44-2.847-.424-1.553-1.811-2.866-3.512-5.288Zm-13.94 1.94-.702 1.646c1.368 1.202 2.957 3.531 4.067 3.328 1.774-.314 3.216-2.348 4.806-3.642l-.702-1.331zm33.406 10.132c1.7 1.423 2.366 2.348 3.254 2.643 1.608.555 3.346.74 5.047.999.037 0 .499-1.405.314-1.553-1.497-1.165-3.013-2.385-4.714-3.143-.684-.314-1.849.462-3.901 1.035Zm26.436 98.554-.11-1.405c-2.903 0-5.842-.277-8.652.203-.647.111-.87 2.773-1.22 4.03zm-72.875 10.963 1.534.11 1.11-9.058-1.609-.203c-2.182 2.773-2.755 5.786-1.035 9.15m5.12-107.298-.462-1.479c-1.386.13-3.013-.148-4.085.5-1.239.72-1.997 2.255-2.958 3.438 1.46 0 3.032.277 4.363-.13 1.183-.37 2.107-1.515 3.161-2.31Zm119.538 16.62 4.085-10.76c-4.437 1.036-5.786 4.382-4.085 10.76M163.98 419.838l-1.608-.13v8.967h1.608zm67.422-19.763 6.859 1.812.37-2.496-6.711-.72c-.037 0-.111.258-.536 1.404ZM57.81 402.848l-2.348.148.407 6.47 2.274-.129-.314-6.47ZM24.663 153.44q.019-50.34-.018-100.68c0-5.675-.26-11.37-.481-17.045-.24-6.267 1.368-8.153 7.635-8.079 18.617.222 37.214.777 55.83.795 17.545 0 35.108-.702 52.652-.74 16.638-.036 33.258.648 49.896.518 20.022-.148 40.025-.776 60.028-1.238q10.39-.24 20.76-.666c3.66-.166 5.436 1.257 5.417 5.066-.055 11.702.037 23.386.056 35.088.018 26.325.147 52.67.037 78.995-.148 33.24-.518 66.48-.795 99.719q-.093 13.163-.333 26.325c-.111 5.398-1.59 6.877-6.97 6.859-33.424-.092-66.849-.314-100.273-.333-21.094 0-42.188.204-63.281.388q-36.272.37-72.525.777c-4.548.055-6.415-1.923-6.433-7.025l.055-62.837V153.44zm10.131-24.236 2.2-.48c.98 2.495 1.904 4.99 2.94 7.468 2.051 4.954 3.493 10.316 6.34 14.753 7.395 11.462 12.978 23.718 17.563 36.493.425 1.165 1.22 2.181 1.83 3.272l1.35-.314c0-1.997.296-4.03-.056-5.971-1.885-10.87-3.993-21.704-5.897-32.575a37.898 37.898 0 0 0-8.56-18.098c-8.559-10.28-14.013-22.055-14.974-35.588q-.869-12.885-1.479-25.79c-.074-1.534.314-3.087.629-5.749 4.27 4.067 5.36 8.264 6.322 12.553 2.404 10.796 4.067 21.852 7.58 32.278 3.365 10.002 8.689 19.338 13.218 28.932.407.87 1.331 1.498 2.7 2.958.295-2.181.61-3.475.61-4.75-.056-10.945-.223-21.87-.278-32.815a11.092 11.092 0 0 0-5.343-9.65 21.815 21.815 0 0 1-9.003-13.514c-1.516-6.434-3.161-12.849-4.751-19.282-1.183-4.77-3.66-7.562-9.17-6.896-3.272.388-5.416-1.46-4.899-5.01.795-5.417 6.415-9.391 11.906-8.633 1.608.221 3.198.536 5.028.832v-5.972l8.172 5.398c2.292-5.86 2.163-5.694 6.544-1.774.887.795 3.328.13 4.936-.296.777-.222 1.276-1.48 1.886-2.256q4.825 3.66 9.668-.98l2.681 6.286c.887-.832 1.645-1.238 1.904-1.867 1.775-4.16 3.809-4.844 6.951-1.072.795.961 2.736 1.164 4.178 1.312 2.44.278 4.936.056 7.358.352 4.751.61 7.173 3.919 6.341 8.356-.795 4.289-4.363 6.563-8.984 5.232-3.162-.906-5.01-.093-6.249 2.828-3.087 7.358-6.1 14.753-9.391 22.018-2.663 5.86-5.214 11.832-11.111 15.53a6.47 6.47 0 0 0-2.533 4.529c-.48 9.52-.665 19.078-.85 28.617-.019 1.516.536 3.032.832 4.548l1.238.222c.98-1.442 2.293-2.755 2.903-4.326 5.99-15.899 15.566-30.54 16.675-48.14.185-2.884.61-5.99 1.83-8.541 1.535-3.217 3.883-6.064 6.156-8.837.5-.61 2.2-.24 3.347-.333.074 1.128.332 2.274.166 3.383-.425 3.014-1.368 5.972-1.516 8.985-.296 6.138-.185 12.294-.259 18.45-.148 12.608-4.381 23.201-13.92 31.983a53.612 53.612 0 0 0-11.592 15.825c-6.544 13.643-5.786 28.433-4.843 43.093.037.702.887 1.33 2.089 3.013 3.77-10.205 7.376-19.448 10.574-28.84 1.165-3.457.869-7.413 2.09-10.833 2.218-6.193 4.676-12.386 7.893-18.08 1.239-2.219 4.825-3.106 7.34-4.603.573 2.847 1.719 5.712 1.608 8.522-.204 4.733-1.405 9.41-1.849 14.143-1.017 10.925-6.36 19.744-13.015 28.044-2.884 3.587-5.342 7.525-7.986 11.314l.906.74 4.899-1.146.887 4.88c1.59-.351 2.958-.536 4.234-.961 4.289-1.424 8.54-2.145 11.942 1.72 3.365 3.808 2.07 8.078.629 12.22-1.035 2.994-3.124 3.937-6.193 3.068-5.38-1.516-6.582-.813-8.042 4.696q-2.736 10.278-5.306 20.576a23.294 23.294 0 0 1-8.578 13.273c-5.195 4.03-6.47 17.378-2.07 22.518.776-.98 1.663-1.812 2.163-2.829q8.56-17.137 17.026-34.312c2.237-4.548 4.215-9.243 6.563-13.736.5-.961 2.07-1.35 3.143-1.996.48 1.053 1.127 2.07 1.368 3.18a5.546 5.546 0 0 1-.24 2.736c-2.385 7.136-4.493 14.4-7.377 21.334-3.013 7.228-6.877 14.105-10.205 21.223-1.238 2.662-1.09 4.843 2.829 4.825 11.998-.074 23.996-.037 35.994-.093 3.92-.018 4.603-1.386 2.644-4.825-2.126-3.734-4.53-7.358-6.286-11.258-4.825-10.704-8.985-21.649-8.356-33.702.092-1.793.721-3.568 1.11-5.343l1.663-.166q1.645 3.346 3.217 6.729c6.877 14.9 13.68 29.856 20.742 44.683.758 1.59 3.05 2.44 4.622 3.623.961-1.94 3.032-4.122 2.662-5.749-.961-4.252-1.941-9.262-4.77-12.164a42.89 42.89 0 0 1-12.367-24.662c-.518-3.494-1.313-6.951-1.85-10.464-.665-4.307-2.939-6.581-7.468-6.489a14.79 14.79 0 0 1-4.53-.684c-3.937-1.238-5.36-4.455-4.103-8.873 1.59-5.639 3.216-6.582 7.801-6.064 6.563.74 13.181 1.46 19.744 1.35 12.313-.204 24.607-.999 36.9-1.554 3.994-.184 6.84 1.997 7.617 5.436a13.31 13.31 0 0 1-1.22 8.56c-1.682 3.086-4.992 3.77-8.486 2.125-2.939-1.368-4.732-.185-5.36 2.903-1.11 5.416-2.33 10.833-3.292 16.287-1.183 6.784-2.883 13.514-7.912 18.376-5.38 5.213-5.75 11.295-4.807 17.858.222 1.572 1.683 2.958 2.57 4.419 1.405-.999 3.383-1.683 4.123-3.032 2.92-5.399 5.546-10.963 8.079-16.546 4.492-9.817 11.628-18.728 10.777-30.448-.037-.573.13-1.35.5-1.738 1.386-1.442 2.902-2.755 4.381-4.123.869 1.812 2.607 3.68 2.496 5.436-1.11 17.063-3.735 33.72-14.956 47.64-.5.63-.629 1.535-.888 2.182h42.539l.703-1.571q-4.105-4.16-8.264-8.264c-5.935-5.787-11.203-12.072-12.165-20.669-.684-6.1-.869-12.275-.961-18.431-.018-1.368 1.257-2.773 1.923-4.141 1.201 1.146 3.18 2.126 3.457 3.457 2.292 10.833 8.06 19.855 14.235 28.729 4.4 6.304 8.504 12.83 12.811 19.208.536.795 1.516 1.423 2.422 1.793.277.11 1.239-.795 1.479-1.387 2.533-6.026-.296-17.266-5.934-20.89-5.27-3.383-7.506-8.245-9.244-13.791-1.83-5.86-3.642-11.795-6.193-17.36a9.798 9.798 0 0 0-6.1-4.621c-4.05-.85-7.71-1.294-8.043-6.434-.314-4.917 2.995-9.78 7.673-10.704 2.994-.591 6.1-.628 9.17-.85 10.537-.74 21.111-1.239 31.612-2.293 4.788-.48 9.206-1.59 13.514 1.997 3.827 3.18 8.264 5.62 12.682 8.541 0-2.94-.055-6.249 0-9.558.203-11.221.702-22.443.61-33.646-.148-17.526-.684-35.051-1.072-52.577l-.37-11.924c-.13-4.27-.462-8.541-.333-12.793.148-5.214.888-10.408.98-15.622.148-8.448-.092-16.915-.037-25.382.056-6.138-.573-6.951-6.73-6.933-29.726 0-59.453.092-89.18.074q-39.045-.037-78.09-.222c-18.93-.074-37.86-.277-56.792-.296-5.601 0-6.36.925-6.415 6.508-.129 11.98-.462 23.977-.295 35.957q.832 57.716 2.033 115.433c.037 1.553 1.516 3.087 2.33 4.622 2.163-1.553 6.378-.666 6.267-4.826-.093-3.863 1.94-3.253 4.067-2.163 1.738.888 3.272 2.2 5.01 3.402l3.161-2.865 5.454 3.05c-5.75-11.702-16.528-18.228-19.781-30.097-3.07-11.185-5.436-22.24-4.9-33.739Zm2.588 89.643 2.09-.591c.85 1.35 1.903 2.625 2.532 4.067 2.81 6.489 5.454 13.052 8.264 19.54 3.79 8.745 7.598 17.49 11.591 26.141.536 1.183 2.163 1.867 3.272 2.773.721-1.072 2.2-2.237 2.07-3.18-1.127-8.263-.998-16.804-7.949-23.404-3.18-3.013-5.14-7.58-6.877-11.758-2.588-6.23-4.437-12.774-6.674-19.152-1.645-4.696-5.601-4.77-9.557-4.363-4.197.443-3.79 3.771-3.753 6.692l.74 51.228c.036 2.939 1.367 4.732 4.325 4.917q7.376.462 14.753.666c.961.018 2.606-.444 2.754-.999a4.067 4.067 0 0 0-.758-3.235c-8.3-8.91-12.238-19.781-14.235-31.502-.998-5.934-1.719-11.905-2.57-17.858Zm37.344-19.54c-3.531-.167-6.415-.592-9.244-.389-5.62.37-7.025 3.162-5.268 8.412 2.736 8.153 5.176 16.398 7.487 24.662.407 1.442-.462 3.253-.758 4.899-1.368-1.35-3.31-2.46-3.956-4.104-1.46-3.698-2.145-7.691-3.42-11.462-.296-.85-1.775-1.276-2.718-1.905-.407 1.036-1.331 2.182-1.146 3.106a125.712 125.712 0 0 0 2.94 11.629 12.09 12.09 0 0 0 14.66 8.023c5.176-1.387 9.317-8.32 8.208-13.958-.167-.813-1.165-1.46-1.775-2.181-.684.72-1.756 1.35-1.941 2.181-.333 1.46.203 3.161-.222 4.548-.407 1.276-1.627 2.292-2.477 3.42-.85-1.128-2.515-2.33-2.422-3.383.407-4.844.72-9.817 2.163-14.401 1.46-4.678 2.607-9.17 2.366-14.383-3.401 1.164-2.68 7.099-7.173 5.028-2.68-1.22-4.973-3.254-7.45-4.936l.629-1.534c3.77.037 8.319 3.235 11.554-3.29Zm193.67 11.443c-3.143.647-6.212.943-9.003 1.978-1.738.647-3.846 2.182-4.419 3.79-2.015 5.62-3.106 11.591-5.195 17.193-1.848 4.954-3.364 11.055-7.099 14.031-6.95 5.528-6.008 12.239-5.694 19.172.056 1.275 2.2 3.494 3.273 3.438 1.756-.092 3.549-1.553 5.102-2.736.592-.444.555-1.7.85-2.588 4.456-12.904 8.782-25.827 13.477-38.638a11.832 11.832 0 0 1 4.88-5.731c4.992-2.792 5.917-4.825 3.828-9.927ZM75.41 48.748c-1.313-.462-2.422-1.238-3.494-1.146-3.864.296-9.207-.425-11.092 1.756-1.72 1.997-.167 7.358.795 11.019 1.7 6.526 4.289 12.811 5.934 19.337.5 1.997-.666 4.492-1.368 6.674-.407 1.276-1.368 2.366-2.09 3.55 1.406.831 2.7 2.162 4.197 2.421 7.876 1.368 15.622-9.484 12.701-17.673-.055-.167-.536-.167-1.756-.518-.536 2.773-.777 5.583-1.72 8.153-.462 1.257-2.2 2.052-3.364 3.05-.555-1.294-1.387-2.533-1.553-3.882-.148-1.146.407-2.403.72-3.587 1.757-6.692 3.587-13.384 5.307-20.076.295-1.147.222-2.367.35-4.123-7.264 4.696-12.552 3.92-14.752-1.997 3.864-.148 8.504 2.422 11.166-2.958Zm156.344 193.56c.87-5.085 1.627-10.095 2.607-15.068 1.017-5.176 2.237-10.315 3.457-15.88-2.015.462-3.642.795-5.232 1.239-5.915 1.645-7.616 4.64-6.137 10.519.832 3.272 1.756 6.563 2.144 9.909.24 2.089-.48 4.27-.776 6.415l-4.955-3.069c-.092-.055-.296.037-1.312.203.906 4.4 4.51 5.935 7.746 7.321 3.568 1.553 7.56 2.385 10.667-1.128 2.847-3.216 4.973-6.71 2.403-11.221a4.252 4.252 0 0 1-.425-3.069c2.44-7.154 5.047-14.253 7.709-21.667-4.53.037-6.138 3.18-6.803 6.637a345.707 345.707 0 0 0-3.439 21.76c-.591 4.64-2.181 6.488-7.635 7.098Zm-73.393-12.22c-.148 2.2-.092 4.436-.536 6.58-.203 1-1.368 1.794-2.089 2.681-.85-.702-2.31-1.33-2.403-2.126-.352-2.995-.647-6.1-.24-9.058.942-6.803 2.31-13.551 3.4-19.744l-12.977-.629c.703 2.903 1.793 6.212 2.274 9.613q1.331 9.577 2.089 19.227c.074.961-.98 2.015-1.516 3.032-.813-.703-1.738-1.331-2.44-2.145-.795-.924-1.405-1.996-2.533-3.66-.61 4.548 1.202 7.672 5.084 9.465 3.512 1.627 7.136 2.07 10.371-.665 2.274-1.942 3.772-9.78 1.498-12.553Zm109.37-3.994-1.295-.573c-1.22 2.995-3.18 5.897-3.53 9.003-1.221 10.667-1.942 21.39-2.663 32.112-.074 1.202.869 3.272 1.775 3.55 1.109.351 3.124-.389 3.919-1.35a8.134 8.134 0 0 0 1.479-4.64c.222-7.21.259-14.42.314-21.648zm-187.7-4.122 1.258.277c.795-1.276 1.885-2.477 2.348-3.864q2.2-6.489 3.919-13.126c.314-1.22-.13-2.643-.222-3.974-1.165.795-2.976 1.35-3.365 2.421a175.627 175.627 0 0 0-4.529 14.605c-.296 1.09.37 2.44.592 3.66M49.399 52.003c-.315.259-1.609.85-1.646 1.516-.037.795.795 2.015 1.59 2.403 2.792 1.35 5.824 2.237 4.27 6.545-.184.517 1.554 2.181 2.663 2.514.61.185 2.255-1.09 2.533-1.997 1.183-3.77-4.66-10.98-9.392-10.98Zm31.779 17.212c5.417-1.72 8.689-7.617 6.859-11.24-1.017-2.034-3.014-3.199-4.03-.703-1.48 3.623-1.886 7.69-2.83 11.961ZM61.304 84.983c2.052-3.42 1.905-11.665-.258-14.069-.61-.665-1.775-.832-2.681-1.22-.351.925-1.128 1.923-.98 2.755q.924 5.657 2.274 11.24c.13.517 1.072.85 1.664 1.294Zm173.26 120.313c-3.16-2.366-10.574-2.773-12.293-.258-.925 1.368-.407 3.956 0 5.878.148.703 1.867 1.073 2.865 1.59l.555-.98-2.311-4.917c4.16-.536 8.116 3.66 11.166-1.331Zm-93.95 10.556c-1.405-3.697-2.348-6.914-3.901-9.816-.5-.943-2.57-1.22-3.975-1.387-.518-.055-1.553.98-1.682 1.646-.314 1.793 6.452 8.929 9.558 9.539Zm-93.027-10.685c3.05 3.586 2.92 8.56 7.875 10.168 1.498-7.062-1.22-10.981-7.875-10.168m2.108-4.844c-4.179-3.642-7.044-2.791-9.595-.425-.666.629-.536 2.108-.777 3.198.98.111 2.052.537 2.921.26 2.237-.722 4.363-1.757 7.45-3.051Zm91.492 28.859v-9.392c-3.291 3.087-3.236 6.064 0 9.392"></path><path fill="#d4d4d4" d="M168.49 84.3q-1.63 0-2.67 1.28-1.05 1.28-.7 2.9l-8.58-.46q.11-2.56 1.16-5.11 1.04-2.55 2.9-4.41 3.94-3.01 8.23-3.01h50.93l-1.16 8.81h-25.52l-9.28 70.88h-9.28l9.39-70.88Z"></path><rect width="63.22" height="79.69" x="-31.61" y="-39.84" fill="none" rx="0" ry="0" transform="translate(188.65 115.83)"></rect></svg></svg>